<svg width="221" height="192" viewBox="0 0 221 192" fill="none" xmlns="http://www.w3.org/2000/svg">
<rect x="179.552" y="148.439" width="41" height="41" fill="#EF88C8"/>
<path d="M-0.000242233 118.015C-0.000242233 103.679 2.81576 90.9648 8.44776 79.8714C14.2504 68.7781 22.1011 60.2448 31.9998 54.2715C41.8984 48.2981 52.9064 45.3114 65.0238 45.3114C74.2398 45.3114 83.0291 47.3594 91.3918 51.4554C99.7544 55.3808 106.41 60.6714 111.36 67.3274V-0.000549316H147.712V189.439H111.36V168.447C106.922 175.445 100.693 181.077 92.6718 185.343C84.6504 189.61 75.3491 191.743 64.7678 191.743C52.8211 191.743 41.8984 188.671 31.9998 182.527C22.1011 176.383 14.2504 167.765 8.44776 156.671C2.81576 145.407 -0.000242233 132.522 -0.000242233 118.015ZM111.616 118.527C111.616 109.823 109.909 102.399 106.496 96.2554C103.082 89.9408 98.4744 85.1621 92.6718 81.9194C86.8691 78.5061 80.6398 76.7994 73.9838 76.7994C67.3278 76.7994 61.1838 78.4208 55.5518 81.6634C49.9198 84.9061 45.3118 89.6848 41.7278 95.9995C38.3144 102.143 36.6078 109.482 36.6078 118.015C36.6078 126.549 38.3144 134.058 41.7278 140.543C45.3118 146.858 49.9198 151.722 55.5518 155.135C61.3544 158.549 67.4984 160.255 73.9838 160.255C80.6398 160.255 86.8691 158.634 92.6718 155.391C98.4744 151.978 103.082 147.199 106.496 141.055C109.909 134.741 111.616 127.231 111.616 118.527Z" fill="white"/>
</svg>
